<svg width="333" height="91" viewBox="0 0 333 91" fill="none" xmlns="http://www.w3.org/2000/svg">
<mask id="mask0_9154_1515" style="mask-type:luminance" maskUnits="userSpaceOnUse" x="0" y="0" width="333" height="91">
<path d="M333 0.697266H0V90.6973H333V0.697266Z" fill="white"/>
</mask>
<g mask="url(#mask0_9154_1515)">
<path fill-rule="evenodd" clip-rule="evenodd" d="M29.4034 36.108C28.0892 33.3774 27.5033 30.3534 27.7025 27.3296C27.9018 24.3057 28.8794 21.3848 30.5406 18.8502C32.2017 16.3157 34.4899 14.2537 37.183 12.8644C39.8762 11.475 42.8828 10.8056 45.9108 10.921C48.9393 11.0364 51.8859 11.9328 54.4658 13.5231C57.0452 15.1134 59.1696 17.3436 60.633 19.9972C62.0964 22.6509 62.8492 25.6378 62.8177 28.668C62.7862 31.6982 61.9717 34.6689 60.4534 37.2915L46.2694 61.8974L50.5219 69.2639L66.8479 40.986C70.0704 35.2623 70.9047 28.4985 69.1704 22.1632C67.4361 15.8279 63.2732 10.4324 57.5847 7.14794C51.8963 3.86355 45.1422 2.9554 38.7883 4.62068C32.4345 6.28596 26.994 10.3902 23.6479 16.0425C21.8709 19.0791 20.7643 22.4609 20.4026 25.9607C20.0409 29.4604 20.4324 32.9971 21.5509 36.333C22.6884 36.1906 23.8335 36.1184 24.9799 36.117L29.4034 36.108ZM86.6209 50.4179C84.8578 47.3233 82.4454 44.6469 79.5496 42.5735C76.6534 40.5001 73.3428 39.0789 69.8449 38.4074C69.4008 39.4686 68.8914 40.5011 68.3195 41.4989L66.0964 45.3464C69.1303 45.5328 72.0639 46.5029 74.6109 48.1616C77.1579 49.8203 79.2315 52.1117 80.6287 54.8108C82.026 57.5104 82.6992 60.5263 82.5826 63.5638C82.4661 66.6008 81.5643 69.5564 79.9646 72.1408C78.3648 74.7256 76.122 76.8509 73.4557 78.3103C70.789 79.7692 67.7898 80.5117 64.7505 80.4653C61.7112 80.419 58.7358 79.5851 56.115 78.0457C53.4942 76.5058 51.3176 74.3125 49.7975 71.6804L35.6359 47.1554H27.1354L43.4164 75.3614C43.9762 76.324 44.5969 77.2501 45.2749 78.1334L45.41 78.3089C47.7288 81.2938 50.7028 83.7049 54.103 85.3559C57.5028 87.0074 61.2369 87.8539 65.0164 87.8309C69.3945 87.8305 73.6952 86.6776 77.4864 84.4883C81.2776 82.2991 84.4263 79.1504 86.6151 75.3592C88.8043 71.5675 89.9568 67.2668 89.9568 62.8888C89.9573 58.5107 88.8048 54.2096 86.6164 50.4179H86.6209ZM33.1007 78.4808C35.7604 77.0948 38.0211 75.0514 39.6677 72.5444L41.8232 76.2974C42.4198 77.3261 43.0843 78.3139 43.8122 79.2539C41.4825 81.9634 38.5916 84.1337 35.3397 85.6147C32.0879 87.0956 28.5529 87.8521 24.9797 87.8309C21.6762 87.8755 18.3968 87.263 15.3318 86.0296C12.2669 84.7961 9.47758 82.966 7.12579 80.6453C4.774 78.3251 2.90663 75.5608 1.63206 72.5125C0.357506 69.4646 -0.298828 66.1936 -0.298828 62.8897C-0.298828 59.5858 0.357506 56.3152 1.63206 53.2669C2.90663 50.219 4.774 47.4542 7.12579 45.134C9.47758 42.8135 12.2669 40.9834 15.3318 39.7499C18.3968 38.5164 21.6762 37.9041 24.9797 37.9485H57.6L53.361 45.3105H24.9797C21.8944 45.3119 18.8639 46.1254 16.1924 47.6689C13.521 49.2124 11.3028 51.4313 9.76054 54.1039C8.21835 56.776 7.40651 59.8067 7.40651 62.8919C7.40655 65.9776 8.21844 69.0083 9.76068 71.6804C11.2598 74.2783 13.3988 76.4486 15.9741 77.9858C18.5493 79.523 21.4751 80.3753 24.473 80.4622C27.4708 80.5486 30.441 79.8664 33.1007 78.4808Z" fill="white"/>
<path d="M151.273 73.6069L149.977 67.4509L149.329 67.2079C148.843 67.5319 148.195 67.7749 147.466 67.7749C146.17 67.7749 145.036 67.0459 143.659 65.5069L131.995 51.8179L148.033 34.5649L147.79 33.9979H138.313L121.546 52.4659V19.7419L120.898 19.2559L112.717 20.4709V74.4979H121.546V61.0519L125.515 56.7589L136.936 70.5289C139.366 73.5259 142.444 75.4699 146.332 75.4699C148.357 75.4699 149.896 74.9839 150.949 74.2549L151.273 73.6069Z" fill="white"/>
<path fill-rule="evenodd" clip-rule="evenodd" d="M266.599 33.0249C278.911 33.0249 287.254 42.4209 287.254 54.247C287.254 66.073 278.911 75.469 266.599 75.469C260.848 75.469 255.988 73.12 252.505 69.556V74.497H244.567V20.5509L252.829 19.3359L253.396 19.7409V38.1279C256.798 34.9689 261.334 33.0249 266.599 33.0249ZM265.546 67.774C273.16 67.774 278.182 61.78 278.182 54.247C278.182 46.795 273.16 40.7199 265.546 40.7199C258.418 40.7199 252.748 45.4179 252.748 54.247C252.748 63.076 258.418 67.774 265.546 67.774Z" fill="white"/>
<path fill-rule="evenodd" clip-rule="evenodd" d="M331.389 67.5313L332.685 73.5253L332.361 74.0923C331.227 74.9023 329.526 75.4693 327.501 75.4693C323.856 75.4693 321.183 73.5253 320.13 70.2043C316.647 73.5253 311.625 75.4693 306.279 75.4693C297.936 75.4693 290.241 70.8523 290.241 62.1043C290.241 53.1133 298.341 48.9823 308.304 48.9823C312.678 48.9823 316.08 49.7923 318.996 50.8453V48.5773C318.996 42.7454 313.731 39.9104 308.142 39.9104C303.525 39.9104 299.961 41.8544 297.126 44.6084H296.478L292.023 40.3964V39.7484C296.397 35.5364 301.986 33.0254 308.952 33.0254C317.7 33.0254 327.663 36.9134 327.663 48.5773V64.2103C327.663 66.3973 328.068 67.7743 329.526 67.7743C330.093 67.7743 330.498 67.5313 330.822 67.2883L331.389 67.5313ZM318.996 59.8363V56.8393C316.89 56.0293 313.407 54.9763 309.438 54.9763C303.039 54.9763 299.07 57.7303 299.07 62.1043C299.07 66.7213 303.444 68.9893 308.061 68.9893C313.65 68.9893 318.996 65.5063 318.996 59.8363Z" fill="white"/>
<path d="M236.599 50.1163C236.599 39.9914 230.038 33.0254 219.751 33.0254C214.324 33.0254 209.707 34.9694 206.548 38.1284C205.495 34.8884 202.984 33.0254 199.258 33.0254C197.152 33.0254 195.37 33.5924 194.236 34.4024L193.912 34.9694L195.208 40.9634L195.775 41.2064C196.099 40.9634 196.504 40.7204 197.071 40.7204C198.61 40.7204 198.934 42.0974 198.934 44.2844V74.4973H207.844V50.8453C207.844 44.6894 211.975 40.6394 218.05 40.6394C224.125 40.6394 227.77 44.6894 227.77 50.8453V74.4973H236.599V50.1163Z" fill="white"/>
<path fill-rule="evenodd" clip-rule="evenodd" d="M191.709 67.5313L193.005 73.5253L192.681 74.0923C191.547 74.9023 189.846 75.4693 187.821 75.4693C184.176 75.4693 181.503 73.5253 180.45 70.2043C176.967 73.5253 171.945 75.4693 166.599 75.4693C158.256 75.4693 150.561 70.8523 150.561 62.1043C150.561 53.1133 158.661 48.9823 168.624 48.9823C172.998 48.9823 176.4 49.7923 179.316 50.8453V48.5773C179.316 42.7454 174.051 39.9104 168.462 39.9104C163.845 39.9104 160.281 41.8544 157.446 44.6084H156.798L152.343 40.3964V39.7484C156.717 35.5364 162.306 33.0254 169.272 33.0254C178.02 33.0254 187.983 36.9134 187.983 48.5773V64.2103C187.983 66.3973 188.388 67.7743 189.846 67.7743C190.413 67.7743 190.818 67.5313 191.142 67.2883L191.709 67.5313ZM179.316 59.8363V56.8393C177.21 56.0293 173.727 54.9763 169.758 54.9763C163.359 54.9763 159.39 57.7303 159.39 62.1043C159.39 66.7213 163.764 68.9893 168.381 68.9893C173.97 68.9893 179.316 65.5063 179.316 59.8363Z" fill="white"/>
</g>
</svg>
