<svg width="360" height="91" viewBox="0 0 360 91" fill="none" xmlns="http://www.w3.org/2000/svg">
<mask id="mask0_5267_671" style="mask-type:luminance" maskUnits="userSpaceOnUse" x="0" y="0" width="360" height="91">
<path d="M359.55 0.697266H0V90.6973H359.55V0.697266Z" fill="white"/>
</mask>
<g mask="url(#mask0_5267_671)">
<path fill-rule="evenodd" clip-rule="evenodd" d="M51.8827 1.28223L69.0876 21.6789L73.1007 59.3697L42.7331 91.2823L7.40082 59.2648L25.1913 13.9981L51.8827 1.28223ZM26.7342 17.4732L40.9251 32.4644L26.4125 53.5138L11.2026 56.9923L26.7342 17.4732ZM11.8421 59.6307L38.8136 84.072L26.4437 56.2917L11.8421 59.6307ZM29.4058 56.2881L43.0765 86.9898L68.7802 59.9785L29.4058 56.2881ZM69.9646 55.4727L66.6306 24.1642L45.1692 32.7852L69.9646 55.4727ZM43.0123 30.7269L65.5411 21.6773L51.1623 4.63101L28.5205 15.4178L43.0123 30.7269ZM42.8953 34.3791L67.7916 57.1588L29.6542 53.5845L42.8953 34.3791Z" fill="white"/>
<path d="M180.911 72.0135C173.288 72.0135 166.853 69.5385 161.705 64.4895C156.557 59.4405 153.983 53.1045 153.983 45.5805C153.983 38.0565 156.557 31.8195 161.705 26.7705C166.853 21.7215 173.288 19.1475 180.911 19.1475C187.346 19.1475 192.89 21.0285 197.741 24.7905C202.592 28.4535 205.661 33.3045 206.948 39.1455H197.939C195.266 32.1165 188.831 27.3645 180.911 27.3645C175.664 27.3645 171.407 29.1465 167.942 32.6115C164.477 36.0765 162.794 40.3335 162.794 45.5805C162.794 50.8275 164.477 55.1835 167.942 58.6485C171.407 62.1135 175.664 63.7965 180.911 63.7965C188.831 63.7965 195.266 59.0445 197.939 52.0155H206.948C205.661 57.8565 202.592 62.7075 197.741 66.4695C192.89 70.1325 187.346 72.0135 180.911 72.0135Z" fill="white"/>
<path d="M291.028 24.3945C287.563 20.9295 283.009 19.1475 277.366 19.1475C268.951 19.1475 262.813 22.6125 259.151 29.6415C256.279 23.0085 249.943 19.1475 241.924 19.1475C234.598 19.1475 229.054 21.9195 225.391 27.5625V20.3355H216.878V70.8255H225.391V40.8285C225.391 32.8095 230.935 27.3645 239.251 27.3645C247.171 27.3645 252.32 32.6115 252.32 40.6305V70.8255H260.833V40.8285C260.833 32.8095 266.377 27.3645 274.693 27.3645C282.613 27.3645 287.761 32.6115 287.761 40.6305V70.8255H296.275V38.2545C296.275 32.4135 294.493 27.8595 291.028 24.3945Z" fill="white"/>
<path fill-rule="evenodd" clip-rule="evenodd" d="M359.206 48.8475V48.8466C359.297 47.6734 359.381 46.5849 359.381 45.5805C359.381 38.0565 356.807 31.8195 351.659 26.7705C346.61 21.7215 340.175 19.1475 332.552 19.1475C324.929 19.1475 318.494 21.7215 313.346 26.7705C308.297 31.8195 305.723 38.0565 305.723 45.5805C305.723 53.1045 308.297 59.4405 313.346 64.4895C318.494 69.5385 324.929 72.0135 332.552 72.0135C344.828 72.0135 354.728 65.0835 358.391 54.6885H348.986C346.313 60.3315 340.076 64.1925 332.552 64.1925C327.998 64.1925 324.038 62.8065 320.771 60.0345C317.504 57.2625 315.524 53.5995 314.831 49.1445H359.183L359.206 48.8475ZM350.273 41.5215H314.93C316.613 32.8095 323.543 26.9685 332.552 26.9685C341.561 26.9685 348.689 32.9085 350.273 41.5215Z" fill="white"/>
<path fill-rule="evenodd" clip-rule="evenodd" d="M146.628 20.335H108.216V28.552H138.114V38.452H123.066C117.819 38.452 113.463 40.036 109.998 43.303C106.533 46.4711 104.85 50.4311 104.85 55.1831C104.85 60.0341 106.533 63.9941 109.998 67.2611C113.463 70.4291 117.819 72.0131 123.066 72.0131C129.897 72.0131 135.837 69.0431 139.005 64.2911V70.8251H146.628V20.335ZM138.114 54.2921C138.114 60.2321 132.471 64.2911 124.155 64.2911C118.116 64.2911 113.661 60.4301 113.661 55.1831C113.661 50.0351 118.116 46.1741 124.155 46.1741H138.114V54.2921Z" fill="white"/>
</g>
</svg>
