<svg width="24" height="25" viewBox="0 0 24 25" fill="none" xmlns="http://www.w3.org/2000/svg">
<path d="M16.175 13.5002H5C4.71667 13.5002 4.47934 13.4042 4.288 13.2122C4.09667 13.0202 4.00067 12.7828 4 12.5002C3.99934 12.2175 4.09534 11.9802 4.288 11.7882C4.48067 11.5962 4.718 11.5002 5 11.5002H16.175L11.275 6.60016C11.075 6.40016 10.979 6.16683 10.987 5.90016C10.995 5.63349 11.0993 5.40016 11.3 5.20016C11.5 5.01683 11.7333 4.92083 12 4.91216C12.2667 4.90349 12.5 4.99949 12.7 5.20016L19.3 11.8002C19.4 11.9002 19.471 12.0085 19.513 12.1252C19.555 12.2418 19.5757 12.3668 19.575 12.5002C19.5743 12.6335 19.5537 12.7585 19.513 12.8752C19.4723 12.9918 19.4013 13.1002 19.3 13.2002L12.7 19.8002C12.5167 19.9835 12.2877 20.0752 12.013 20.0752C11.7383 20.0752 11.5007 19.9835 11.3 19.8002C11.1 19.6002 11 19.3628 11 19.0882C11 18.8135 11.1 18.5758 11.3 18.3752L16.175 13.5002Z" fill="#0E1011"/>
</svg>
